<svg xmlns="http://www.w3.org/2000/svg" xmlns:xlink="http://www.w3.org/1999/xlink">

  <symbol id="logo" viewBox="0 0 511.999 511.999" xml:space="preserve">
    <path style="fill:#877E73;" d="M489.484,339.878c-4.887,1.293-8.065,5.896-8.093,10.951c-0.12,21.378-17.55,38.734-38.957,38.734
      h-126.2l46.502-71.866c3.339-5.161,1.863-12.052-3.298-15.391c-5.161-3.339-12.053-1.862-15.391,3.298l-54.327,83.96h-47.634
      v-44.522c0-6.147-4.983-11.13-11.13-11.13s-11.13,4.983-11.13,11.13v44.522h-47.633l-54.327-83.96
      c-3.339-5.161-10.23-6.637-15.391-3.298c-5.161,3.339-6.637,10.23-3.298,15.391l46.502,71.866h-13.968
      c-33.594,0-61.627,26.676-62.139,60.267c-0.522,34.189,27.138,62.168,61.21,62.168h98.504c0.279,0,0.552-0.023,0.823-0.058
      c0.279,0.021,0.558,0.059,0.837,0.059c3.65,0,7.225-1.793,9.355-5.084l61.529-95.091h140.604c33.755,0,61.217-27.462,61.217-61.217
      C503.652,343.472,496.939,337.904,489.484,339.878z M131.513,489.737c-21.272,0-39.174-16.75-39.677-38.017
      c-0.519-21.908,17.153-39.896,38.945-39.896h29.301l50.414,77.913H131.513z M219.826,463.177l-33.229-51.354h33.229V463.177z
      M242.086,463.177v-51.354h33.229L242.086,463.177z"/>
    <path style="fill:#9379AD;" d="M341.708,100.181L341.708,100.181c-5.585,56.245-53.038,100.174-110.752,100.174l0,0
      c-57.715,0-105.167-43.928-110.751-100.174h-0.001c0-0.001,0-0.002,0-0.003s0-0.002,0-0.003h0.001
      C125.789,43.928,173.241,0,230.956,0l0,0c57.715,0,105.167,43.928,110.751,100.174h0.001c0,0.001,0,0.002,0,0.003
      C341.708,100.177,341.708,100.179,341.708,100.181z"/>
    <path style="fill:#FFC865;" d="M148.046,319.121c-9.066,2.385-18.581,3.661-28.395,3.661l0,0
      c-61.471,0-111.304-49.832-111.304-111.304l0,0c0-61.471,49.832-111.304,111.304-111.304l0,0c32.938,0,62.531,14.313,82.909,37.052
      L148.046,319.121z"/>
    <path style="fill:#FF8365;" d="M259.351,137.225c20.379-22.739,49.971-37.052,82.909-37.052l0,0
      c61.471,0,111.304,49.832,111.304,111.304l0,0c0,61.471-49.832,111.304-111.304,111.304l0,0c-9.814,0-19.329-1.276-28.395-3.661
      L259.351,137.225z"/>
    <path style="fill:#80BDA2;" d="M230.956,356.173L230.956,356.173c-61.472,0-111.304-49.832-111.304-111.304l0,0
      c0-61.471,49.832-111.304,111.304-111.304l0,0c61.471,0,111.304,49.832,111.304,111.304l0,0
      C342.26,306.341,292.427,356.173,230.956,356.173z"/>
    <path style="fill:#FFFFFF;" d="M273.985,297.147c3.075,5.323,1.254,12.13-4.067,15.206c-1.555,0.899-3.155,1.752-4.757,2.534
      c-1.574,0.77-3.241,1.135-4.883,1.135c-4.117,0-8.075-2.294-10.006-6.242c-2.701-5.522-0.415-12.188,5.107-14.889
      c1.143-0.559,2.287-1.169,3.4-1.813C264.101,290.003,270.909,291.824,273.985,297.147z M230.956,166.955
      c-6.147,0-11.13,4.983-11.13,11.13c0,6.147,4.983,11.13,11.13,11.13c30.687,0,55.652,24.966,55.652,55.652
      c0,6.147,4.983,11.13,11.13,11.13c6.147,0,11.13-4.983,11.13-11.13C308.869,201.907,273.917,166.955,230.956,166.955z
      M343.179,133.564c-6.147,0-11.13,4.983-11.13,11.13c0,6.147,4.983,11.13,11.13,11.13c30.687,0,55.652,24.966,55.652,55.652
      c0,6.147,4.983,11.13,11.13,11.13c6.147,0,11.13-4.983,11.13-11.13C421.092,168.516,386.14,133.564,343.179,133.564z
      M370.999,259.69c-1.11,0.641-2.253,1.251-3.4,1.812c-5.521,2.702-7.807,9.368-5.104,14.89c1.931,3.947,5.889,6.24,10.005,6.24
      c1.643,0,3.31-0.365,4.885-1.136c1.605-0.786,3.206-1.638,4.756-2.535c5.321-3.078,7.141-9.885,4.065-15.208
      C383.129,258.432,376.322,256.613,370.999,259.69z"/>
  </symbol>

  <symbol id="phone" viewBox="0 0 512 512" xml:space="preserve">
    <ellipse style="fill:orange;" cx="256" cy="256" rx="256" ry="255.832"/>
    <g>
      <rect x="331.753" y="288.52" transform="matrix(0.7879 -0.6158 0.6158 0.7879 -131.5202 286.6909)" style="fill:#FFFFFF;" width="37.344" height="91.504"/>
      <path style="fill:#FFFFFF;" d="M348.696,393.736L292.344,321.6c-51.16-14.248-87.064-60.168-88.544-113.256l-56.352-72.096
        c0,0-53.392,76.488,30.4,183.64S348.696,393.736,348.696,393.736z"/>
      <rect x="186.814" y="103.169" transform="matrix(0.7879 -0.6158 0.6158 0.7879 -48.1226 158.1244)" style="fill:#FFFFFF;" width="37.344" height="91.504"/>
    </g>
  </symbol>

  <symbol id="message" viewBox="0 0 64 64" xml:space="preserve">
    <g id="Layer_1">
      <g>
        <circle fill="#77B3D4" cx="32" cy="32" r="32"/>
      </g>
      <g>
        <g class="st1">
          <path fill="#231F20" d="M52,44c0,2.2-1.8,4-4,4H16c-2.2,0-4-1.8-4-4V24c0-2.2,1.8-4,4-4h32c2.2,0,4,1.8,4,4V44z"/>
        </g>
        <g>
          <path fill="#E0E0D1" d="M52,42c0,2.2-1.8,4-4,4H16c-2.2,0-4-1.8-4-4V22c0-2.2,1.8-4,4-4h32c2.2,0,4,1.8,4,4V42z"/>
        </g>
        <g class="st1">
          <g>
            <path fill="#231F20" d="M35.5,30.2c-1.9-2.1-5.1-2.1-7,0L13,43.2c-0.2,0.2-0.3,0.4-0.5,0.6c0.7,1.3,2,2.2,3.4,2.2h32
              c1.5,0,2.7-0.9,3.4-2.2c-0.1-0.2-0.3-0.4-0.5-0.6L35.5,30.2z"/>
          </g>
        </g>
        <g>
          <g>
            <path fill="#E0E0D1" d="M35.5,32c-1.9-1.9-5.1-1.9-7,0L13,43.5c-0.2,0.2-0.3,0.3-0.5,0.5c0.7,1.2,2,1.9,3.4,1.9h32
              c1.5,0,2.7-0.8,3.4-1.9c-0.1-0.2-0.3-0.3-0.5-0.5L35.5,32z"/>
          </g>
        </g>
        <g class="st1">
          <g>
            <path fill="#231F20" d="M12.6,20.2c0.7-1.3,2-2.2,3.4-2.2h32c1.5,0,2.7,0.9,3.4,2.2c-0.1,0.2-0.3,0.4-0.5,0.6l-15.4,13
              c-1.9,2.1-5.1,2.1-7,0L12.6,20.2z"/>
          </g>
        </g>
        <g>
          <g>
            <path fill="#E0E0D1" d="M28.5,32c1.9,1.9,5.1,1.9,7,0L51,20.5c0.2-0.2,0.3-0.3,0.5-0.5c-0.7-1.2-2-1.9-3.4-1.9H16
              c-1.5,0-2.7,0.8-3.4,1.9c0.1,0.2,0.3,0.3,0.5,0.5L28.5,32z"/>
          </g>
        </g>
      </g>
    </g>
    <g id="Layer_2">
    </g>
  </symbol>

  <symbol id="call" viewBox="0 0 451.277 451.277" xml:space="preserve">
    <circle style="fill:#EA8953;" cx="225.638" cy="225.638" r="225.638"/>
    <path style="opacity:0.1;enable-background:new    ;" d="M332.869,334.666l-60.646-60.598l-156.08-156.08
      c-10.484,9.496-19.792,19.557-19.792,25.575c0,35.588,31.075,87.019,71.693,130.223c6.018,6.488,12.317,12.74,18.711,18.758
      l0.705,0.658l135.894,135.894c22.668-10.907,43.215-25.507,60.904-42.993l-51.389-51.389V334.666z"/>
    <path style="opacity:0.1;enable-background:new    ;" d="M304.098,252.536L198.321,146.759l-48.704-48.751
      c-2.257-2.21-5.735-2.445-8.274-0.564c-3.479,2.586-8.744,6.629-14.433,11.33l267.077,267.077
      c5.285-5.919,10.243-12.13,14.888-18.585l-55.79-55.79L304.098,252.536z"/>
    <g>
      <path style="fill:#FFFFFF;" d="M294.997,252.677c-3.76,4.051-7.702,8.194-11.431,11.924c-0.142,0.142-0.263,0.26-0.401,0.398
        l59.016,59.017c4.687-5.591,8.763-10.752,11.431-14.207c1.942-2.514,1.698-6.066-0.547-8.312l-48.98-48.98
        C301.551,249.984,297.432,250.053,294.997,252.677z"/>
      <path style="fill:#FFFFFF;" d="M272.215,274.052c-18.046,5.994-40.8,0.218-60.261-15.563
        c-25.788-20.91-39.966-54.072-34.635-79.333l-61.166-61.166c-10.511,9.486-19.797,19.558-19.797,25.593
        c0,74.675,136.954,219.095,211.212,211.212c5.943-0.631,15.874-9.826,25.284-20.107L272.215,274.052z"/>
      <path style="fill:#FFFFFF;" d="M141.359,97.427c-3.501,2.625-8.758,6.664-14.442,11.325l58.889,58.889
        c0.032-0.032,0.058-0.06,0.091-0.092c3.807-3.808,8.077-7.842,12.252-11.677c2.645-2.431,2.724-6.567,0.184-9.107L149.598,98.03
        C147.376,95.808,143.874,95.542,141.359,97.427z"/>
    </g>
  </symbol>

  <symbol id="telegram" viewBox="0 0 512 512">
    <rect width="512" height="512" rx="15%" fill="#37aee2"/>
    <path fill="#c8daea" d="M199 404c-11 0-10-4-13-14l-32-105 245-144"/>
    <path fill="#a9c9dd" d="M199 404c7 0 11-4 16-8l45-43-56-34"/>
    <path fill="#f6fbfe" d="M204 319l135 99c14 9 26 4 30-14l55-258c5-22-9-32-24-25L79 245c-21 8-21 21-4 26l83 26 190-121c9-5 17-3 11 4"/>
  </symbol>

  <symbol id="whatsapp" viewBox="0 0 455.731 455.731" xml:space="preserve">
    <g>
      <rect x="0" y="0" style="fill:#1BD741;" width="455.731" height="455.731"/>
      <g>
        <path style="fill:#FFFFFF;" d="M68.494,387.41l22.323-79.284c-14.355-24.387-21.913-52.134-21.913-80.638
          c0-87.765,71.402-159.167,159.167-159.167s159.166,71.402,159.166,159.167c0,87.765-71.401,159.167-159.166,159.167
          c-27.347,0-54.125-7-77.814-20.292L68.494,387.41z M154.437,337.406l4.872,2.975c20.654,12.609,44.432,19.274,68.762,19.274
          c72.877,0,132.166-59.29,132.166-132.167S300.948,95.321,228.071,95.321S95.904,154.611,95.904,227.488
          c0,25.393,7.217,50.052,20.869,71.311l3.281,5.109l-12.855,45.658L154.437,337.406z"/>
        <path style="fill:#FFFFFF;" d="M183.359,153.407l-10.328-0.563c-3.244-0.177-6.426,0.907-8.878,3.037
          c-5.007,4.348-13.013,12.754-15.472,23.708c-3.667,16.333,2,36.333,16.667,56.333c14.667,20,42,52,90.333,65.667
          c15.575,4.404,27.827,1.435,37.28-4.612c7.487-4.789,12.648-12.476,14.508-21.166l1.649-7.702c0.524-2.448-0.719-4.932-2.993-5.98
          l-34.905-16.089c-2.266-1.044-4.953-0.384-6.477,1.591l-13.703,17.764c-1.035,1.342-2.807,1.874-4.407,1.312
          c-9.384-3.298-40.818-16.463-58.066-49.687c-0.748-1.441-0.562-3.19,0.499-4.419l13.096-15.15
          c1.338-1.547,1.676-3.722,0.872-5.602l-15.046-35.201C187.187,154.774,185.392,153.518,183.359,153.407z"/>
      </g>
    </g>
  </symbol>

  <symbol id="vk" xmlns="http://www.w3.org/2000/svg"
    aria-label="VK" role="img"
    viewBox="0 0 512 512"><rect
    width="512" height="512"
    rx="15%"
    fill="#5281b8"/><path fill="#ffffff" d="M274 363c5-1 14-3 14-15 0 0-1-30 13-34s32 29 51 42c14 9 25 8 25 8l51-1s26-2 14-23c-1-2-9-15-39-42-31-30-26-25 11-76 23-31 33-50 30-57-4-7-20-6-20-6h-57c-6 0-9 1-12 6 0 0-9 25-21 45-25 43-35 45-40 42-9-5-7-24-7-37 0-45 7-61-13-65-13-2-59-4-73 3-7 4-11 11-8 12 3 0 12 1 17 7 8 13 9 75-2 81-15 11-53-62-62-86-2-6-5-7-12-9H79c-6 0-15 1-11 13 27 56 83 193 184 192z"/>
  </symbol>

  <!-- <symbol id="telegram2" xmlns="http://www.w3.org/2000/svg" fill="none" viewBox="0 0 48 48">
    <path fill="#fff" d="M41.42 7.309s3.885-1.515 3.56 2.164c-.107 1.515-1.078 6.818-1.834 12.553l-2.59 16.99s-.216 2.489-2.159 2.922c-1.942.432-4.856-1.515-5.396-1.948-.432-.325-8.094-5.195-10.792-7.575-.756-.65-1.62-1.948.108-3.463L33.648 18.13c1.295-1.298 2.59-4.328-2.806-.649l-15.11 10.28s-1.727 1.083-4.964.109l-7.016-2.165s-2.59-1.623 1.835-3.246c10.793-5.086 24.068-10.28 35.831-15.15Z"/>
  </symbol> -->
  <!-- <symbol id="whatsapp2" xmlns="http://www.w3.org/2000/svg" fill="none" viewBox="0 0 20 20">
    <path fill="#2BB741" d="m5.063 17.594.339.168c1.41.844 2.99 1.238 4.57 1.238C14.937 19 19 14.95 19 10c0-2.362-.96-4.669-2.652-6.356A8.977 8.977 0 0 0 9.972 1C5.007 1 .944 5.05 1.001 10.056c0 1.688.507 3.319 1.354 4.725l.225.338-.902 3.319 3.385-.844Z"/>
    <path fill="url(#a)" d="m5.063 17.594.339.168c1.41.844 2.99 1.238 4.57 1.238C14.937 19 19 14.95 19 10c0-2.362-.96-4.669-2.652-6.356A8.977 8.977 0 0 0 9.972 1C5.007 1 .944 5.05 1.001 10.056c0 1.688.507 3.319 1.354 4.725l.225.338-.902 3.319 3.385-.844Z"/>
    <path fill="#fff" d="M16.615 3.282C14.872 1.487 12.462.512 10 .512 4.77.513.564 4.77.615 9.95c0 1.64.462 3.23 1.231 4.666L.513 19.487l4.974-1.282c1.385.77 2.923 1.128 4.462 1.128 5.18 0 9.384-4.256 9.384-9.436 0-2.512-.974-4.871-2.718-6.615ZM10 17.744c-1.385 0-2.77-.36-3.949-1.077l-.307-.154-2.975.769.77-2.923-.206-.308c-2.256-3.64-1.18-8.461 2.513-10.718 3.692-2.256 8.462-1.18 10.718 2.513 2.256 3.692 1.18 8.462-2.513 10.718-1.18.77-2.615 1.18-4.051 1.18Zm4.513-5.693-.564-.256s-.82-.36-1.334-.615c-.05 0-.102-.052-.154-.052a.74.74 0 0 0-.358.103s-.052.051-.77.872a.282.282 0 0 1-.256.153h-.051a.389.389 0 0 1-.206-.102l-.256-.103c-.564-.256-1.077-.564-1.487-.974-.103-.103-.256-.205-.359-.308C8.359 10.41 8 10 7.744 9.54l-.052-.103c-.051-.051-.051-.103-.102-.205 0-.103 0-.205.051-.257 0 0 .205-.256.359-.41.103-.102.154-.256.256-.359.103-.154.154-.359.103-.513-.051-.256-.667-1.64-.82-1.948-.103-.154-.206-.206-.36-.257h-.564c-.102 0-.205.051-.307.051l-.052.052c-.102.051-.205.154-.307.205-.103.102-.154.205-.257.308a2.615 2.615 0 0 0-.564 1.59c0 .41.103.82.257 1.179l.05.154a8.543 8.543 0 0 0 1.898 2.615l.205.205c.154.154.308.257.41.41a9.162 9.162 0 0 0 3.693 1.95c.154.05.359.05.513.102h.513c.256 0 .564-.103.769-.205.154-.103.256-.103.359-.206l.102-.102c.103-.103.206-.154.308-.256.103-.103.205-.206.256-.308.103-.205.154-.462.206-.718v-.36s-.052-.05-.154-.102Z"/>
    <defs>
      <linearGradient id="a" x1="1.226" x2="16.586" y1="18.887" y2="4.581" gradientUnits="userSpaceOnUse">
        <stop stop-color="#20B038"/>
        <stop offset="1" stop-color="#60D66A"/>
      </linearGradient>
    </defs>
  </symbol> -->
  <symbol id="vk2" xmlns="http://www.w3.org/2000/svg" viewBox="0 0 24 23">
    <path fill="#fff" d="M21.579 6.855c.14-.465 0-.806-.662-.806h-2.193c-.558 0-.813.295-.953.619 0 0-1.115 2.719-2.695 4.482-.51.513-.743.675-1.021.675-.139 0-.341-.162-.341-.627V6.855c0-.558-.161-.806-.626-.806H9.642c-.348 0-.558.258-.558.504 0 .528.79.65.871 2.138v3.228c0 .707-.127.836-.407.836-.743 0-2.551-2.729-3.624-5.853-.209-.607-.42-.852-.98-.852H2.752c-.627 0-.752.295-.752.619 0 .582.743 3.462 3.461 7.271 1.812 2.601 4.363 4.011 6.687 4.011 1.393 0 1.565-.313 1.565-.853v-1.966c0-.626.133-.752.574-.752.324 0 .882.164 2.183 1.417 1.486 1.486 1.732 2.153 2.567 2.153h2.192c.626 0 .939-.313.759-.931-.197-.615-.907-1.51-1.849-2.569-.512-.604-1.277-1.254-1.51-1.579-.325-.419-.231-.604 0-.976.001.001 2.672-3.761 2.95-5.04z"/>
  </symbol>
</svg>